<?xml version="1.0" encoding="UTF-8" standalone="no"?>
<!DOCTYPE svg PUBLIC "-//W3C//DTD SVG 1.1//EN" "http://www.w3.org/Graphics/SVG/1.1/DTD/svg11.dtd">
<svg xmlns="http://www.w3.org/2000/svg" version="1.1" viewBox="0.00 0.00 900.00 540.00">
<g stroke-width="2.00" fill="none" stroke-linecap="butt">
<path stroke="#2950b2" stroke-opacity="0.875" vector-effect="non-scaling-stroke" d="
  M 73.32 164.01
  L 49.29 164.02"
/>
<path stroke="#2b53b9" stroke-opacity="0.925" vector-effect="non-scaling-stroke" d="
  M 93.10 164.00
  L 73.32 164.01"
/>
<path stroke="#2c55be" stroke-opacity="0.953" vector-effect="non-scaling-stroke" d="
  M 187.18 260.94
  Q 184.76 258.67 183.80 255.47
  Q 183.68 255.07 183.31 254.88
  Q 183.16 254.80 183.01 254.73
  Q 182.52 254.48 182.24 254.01
  L 130.94 165.01
  A 2.00 1.99 -14.9 0 0 129.24 164.03
  L 93.10 164.00"
/>
<path stroke="#2b53b9" stroke-opacity="0.925" vector-effect="non-scaling-stroke" d="
  M 49.29 164.02
  L 48.92 164.20
  Q 48.39 164.46 48.57 165.02
  L 68.09 223.32
  A 0.51 0.51 0.0 0 1 67.61 223.99
  L 47.48 223.97"
/>
<path stroke="#2b53b9" stroke-opacity="0.925" vector-effect="non-scaling-stroke" d="
  M 208.52 316.10
  L 188.93 315.95
  A 0.91 0.91 0.0 0 0 188.06 317.15
  Q 197.73 346.16 207.54 375.29
  Q 207.74 375.89 206.78 375.98"
/>
<path stroke="#2950b2" stroke-opacity="0.875" vector-effect="non-scaling-stroke" d="
  M 206.78 375.98
  L 182.73 376.00"
/>
<path stroke="#2b53b9" stroke-opacity="0.925" vector-effect="non-scaling-stroke" d="
  M 182.73 376.00
  L 162.98 376.07"
/>
<path stroke="#2c55be" stroke-opacity="0.953" vector-effect="non-scaling-stroke" d="
  M 162.98 376.07
  L 126.93 376.04
  A 2.15 2.15 0.0 0 1 125.07 374.97
  L 68.56 277.43"
/>
</g>
<path fill="#0c1632" fill-opacity="0.251" d="
  M 68.13 0.00
  L 148.63 0.00
  L 185.21 247.86
  Q 183.44 242.43 182.28 236.99
  Q 162.21 142.75 142.25 48.87
  A 1.09 1.09 0.0 0 0 141.18 48.00
  L 75.42 48.00
  L 68.13 0.00
  Z"
/>
<path fill="#172d63" fill-opacity="0.502" d="
  M 74.80 48.04
  Q 74.83 48.60 75.19 49.00
  Q 75.51 49.36 75.59 49.85
  L 83.84 104.00
  L 60.98 104.01
  Q 60.48 103.32 60.70 104.04
  Q 60.59 103.73 60.46 103.54
  Q 59.94 102.77 59.93 102.75
  L 48.14 48.53
  Q 48.03 48.05 48.53 48.05
  L 74.80 48.04
  Z"
/>
<path fill="#1d387c" fill-opacity="0.627" d="
  M 74.80 48.04
  L 75.42 48.00
  L 141.18 48.00
  A 1.09 1.09 0.0 0 1 142.25 48.87
  Q 162.21 142.75 182.28 236.99
  Q 183.44 242.43 185.21 247.86
  L 186.00 254.21
  Q 183.97 251.65 182.82 248.14
  Q 159.18 176.28 135.78 104.68
  A 0.97 0.97 0.0 0 0 134.86 104.02
  L 88.21 104.03
  L 83.84 104.00
  L 75.59 49.85
  Q 75.51 49.36 75.19 49.00
  Q 74.83 48.60 74.80 48.04
  Z"
/>
<path fill="#234395" fill-opacity="0.749" d="
  M 60.70 104.04
  Q 60.48 103.32 60.98 104.01
  Q 60.24 104.30 60.34 104.76
  Q 66.63 134.35 73.32 164.01
  L 49.29 164.02
  Q 48.91 163.47 47.97 163.31
  L 28.36 104.73
  Q 28.15 104.10 28.82 104.10
  L 60.70 104.04
  Z"
/>
<path fill="#274ca9" fill-opacity="0.851" d="
  M 60.98 104.01
  L 83.84 104.00
  L 88.21 104.03
  L 84.71 104.16
  Q 84.16 104.18 84.24 104.72
  L 93.10 164.00
  L 73.32 164.01
  Q 66.63 134.35 60.34 104.76
  Q 60.24 104.30 60.98 104.01
  Z"
/>
<path fill="#2a50b4" fill-opacity="0.906" d="
  M 88.21 104.03
  L 134.86 104.02
  A 0.97 0.97 0.0 0 1 135.78 104.68
  Q 159.18 176.28 182.82 248.14
  Q 183.97 251.65 186.00 254.21
  L 187.18 260.94
  Q 184.76 258.67 183.80 255.47
  Q 183.68 255.07 183.31 254.88
  Q 183.16 254.80 183.01 254.73
  Q 182.52 254.48 182.24 254.01
  L 130.94 165.01
  A 2.00 1.99 -14.9 0 0 129.24 164.03
  L 93.10 164.00
  L 84.24 104.72
  Q 84.16 104.18 84.71 104.16
  L 88.21 104.03
  Z"
/>
<rect fill="#2e59c7" x="690.50" y="148.00" width="20.34" height="195.50" rx="0.34"/>
<rect fill="#2e59c7" x="752.01" y="152.90" width="20.36" height="23.72" rx="0.34"/>
<path fill="#274ca9" fill-opacity="0.851" d="
  M 47.97 163.31
  Q 48.91 163.47 49.29 164.02
  L 48.92 164.20
  Q 48.39 164.46 48.57 165.02
  L 68.09 223.32
  A 0.51 0.51 0.0 0 1 67.61 223.99
  L 47.48 223.97
  L 12.27 164.46
  Q 12.00 164.00 12.53 164.00
  L 47.86 164.00
  Q 48.30 164.00 48.20 163.57
  Q 48.16 163.40 47.97 163.31
  Z"
/>
<path fill="#2e59c7" d="
  M 49.29 164.02
  L 73.32 164.01
  L 93.10 164.00
  L 129.24 164.03
  A 2.00 1.99 -14.9 0 1 130.94 165.01
  L 182.24 254.01
  Q 182.52 254.48 183.01 254.73
  Q 183.16 254.80 183.31 254.88
  Q 183.68 255.07 183.80 255.47
  Q 184.76 258.67 187.18 260.94
  L 187.87 263.52
  Q 188.00 264.00 187.50 264.00
  L 64.17 264.00
  Q 63.22 264.00 62.42 263.49
  L 1.33 224.82
  Q 0.02 224.00 1.57 224.00
  L 47.48 223.97
  L 67.61 223.99
  A 0.51 0.51 0.0 0 0 68.09 223.32
  L 48.57 165.02
  Q 48.39 164.46 48.92 164.20
  L 49.29 164.02
  Z"
/>
<path fill="#2e59c7" d="
  M 356.06 324.92
  C 365.05 328.13 373.43 328.29 384.05 327.48
  Q 396.32 326.54 408.66 325.65
  Q 409.29 325.60 409.32 326.23
  L 410.07 341.99
  Q 410.10 342.52 409.57 342.59
  C 391.03 345.18 370.35 348.18 351.03 343.95
  C 329.20 339.16 321.02 322.47 318.00 302.25
  Q 313.59 272.66 318.44 245.24
  C 321.83 226.05 332.43 211.43 352.00 206.93
  C 371.34 202.49 390.06 205.97 409.31 208.73
  Q 409.83 208.80 409.80 209.31
  L 409.03 224.73
  Q 409.00 225.38 408.35 225.30
  Q 390.90 223.11 376.26 222.84
  Q 367.84 222.69 358.76 225.20
  C 344.57 229.13 340.09 240.73 338.34 254.06
  Q 335.69 274.31 338.15 295.12
  C 339.62 307.59 343.04 320.28 356.06 324.92
  Z"
/>
<path fill="#2e59c7" d="
  M 570.91 231.44
  C 584.90 196.61 629.61 204.24 657.72 208.86
  Q 658.08 208.92 658.06 209.28
  L 657.32 224.84
  Q 657.29 225.42 656.71 225.35
  Q 637.01 222.86 624.26 222.83
  C 613.16 222.80 598.86 225.40 592.52 235.26
  Q 589.04 240.66 587.49 249.54
  Q 584.33 267.65 585.75 288.00
  C 586.95 305.29 589.71 322.48 609.78 326.42
  Q 618.71 328.17 625.49 327.77
  Q 641.30 326.83 657.10 325.65
  Q 657.53 325.62 657.55 326.05
  L 658.35 341.81
  Q 658.38 342.36 657.84 342.45
  Q 641.22 345.21 624.52 346.17
  C 603.78 347.36 579.89 342.53 571.27 321.00
  C 566.17 308.26 564.81 295.12 564.32 280.51
  C 563.79 264.35 564.85 246.52 570.91 231.44
  Z"
/>
<path fill="#2e59c7" d="
  M 900.00 339.63
  L 900.00 342.42
  C 879.08 345.83 853.36 349.47 833.77 341.71
  C 807.37 331.25 805.84 297.71 806.02 273.25
  C 806.13 257.69 807.38 240.45 814.33 227.50
  C 830.48 197.40 871.54 204.14 899.14 208.82
  Q 899.70 208.91 899.67 209.49
  L 898.94 224.78
  Q 898.91 225.36 898.33 225.29
  Q 890.58 224.33 882.81 223.76
  C 866.24 222.52 840.58 220.17 832.24 238.72
  Q 830.01 243.68 828.82 251.16
  Q 824.88 275.97 828.83 300.76
  C 830.11 308.82 833.51 317.53 840.54 322.09
  C 849.48 327.88 861.40 328.43 871.68 327.66
  Q 885.08 326.67 898.47 325.62
  Q 899.23 325.56 899.28 326.32
  L 900.00 339.63
  Z"
/>
<path fill="#2e59c7" d="
  M 486.22 343.50
  L 466.72 343.50
  A 0.34 0.34 0.0 0 1 466.39 343.25
  L 427.87 207.85
  A 0.34 0.34 0.0 0 1 428.20 207.42
  L 447.90 207.41
  A 0.34 0.34 0.0 0 1 448.23 207.66
  L 482.20 325.65
  A 0.34 0.34 0.0 0 0 482.53 325.90
  L 491.02 325.90
  A 0.34 0.34 0.0 0 0 491.35 325.65
  L 525.58 207.67
  A 0.34 0.34 0.0 0 1 525.91 207.42
  L 545.62 207.40
  A 0.34 0.34 0.0 0 1 545.94 207.83
  L 489.42 403.75
  A 0.34 0.34 0.0 0 1 489.09 404.00
  L 469.38 404.00
  A 0.34 0.34 0.0 0 1 469.06 403.56
  L 486.54 343.94
  A 0.34 0.34 0.0 0 0 486.22 343.50
  Z"
/>
<rect fill="#2e59c7" x="752.00" y="207.41" width="20.36" height="136.08" rx="0.27"/>
<path fill="#2e59c7" d="
  M 208.52 316.10
  L 188.93 315.95
  A 0.91 0.91 0.0 0 0 188.06 317.15
  Q 197.73 346.16 207.54 375.29
  Q 207.74 375.89 206.78 375.98
  L 182.73 376.00
  L 162.98 376.07
  L 126.93 376.04
  A 2.15 2.15 0.0 0 1 125.07 374.97
  L 68.56 277.43
  Q 68.13 277.20 68.11 276.43
  Q 68.10 276.00 68.53 276.00
  L 192.23 276.00
  Q 192.78 276.00 193.24 276.29
  L 254.67 315.17
  Q 256.03 316.04 254.42 316.04
  L 208.52 316.10
  Z"
/>
<path fill="#2a50b4" fill-opacity="0.906" d="
  M 68.56 277.43
  L 125.07 374.97
  A 2.15 2.15 0.0 0 0 126.93 376.04
  L 162.98 376.07
  L 172.19 435.97
  Q 172.11 435.99 172.02 436.01
  L 121.28 436.01
  A 1.19 1.19 0.0 0 1 120.15 435.19
  Q 98.29 368.45 76.25 301.25
  Q 72.75 290.58 69.88 284.16
  L 68.56 277.43
  Z"
/>
<path fill="#1d387c" fill-opacity="0.627" d="
  M 69.88 284.16
  Q 72.75 290.58 76.25 301.25
  Q 98.29 368.45 120.15 435.19
  A 1.19 1.19 0.0 0 0 121.28 436.01
  L 172.02 436.01
  L 180.61 491.99
  L 114.65 491.99
  A 0.92 0.90 -5.8 0 1 113.75 491.27
  L 72.75 298.26
  Q 72.69 297.98 72.52 298.21
  L 72.05 298.89
  L 69.88 284.16
  Z"
/>
<path fill="#0c1632" fill-opacity="0.251" d="
  M 180.61 491.99
  Q 184.29 515.48 187.80 538.87
  Q 187.90 539.54 187.55 539.74
  Q 187.19 539.94 186.50 540.00
  L 107.37 540.00
  L 72.47 305.26
  Q 72.40 304.82 72.69 304.49
  Q 72.83 304.33 72.89 304.16
  Q 72.94 304.02 72.89 303.84
  Q 72.17 301.20 72.05 298.89
  L 72.52 298.21
  Q 72.69 297.98 72.75 298.26
  L 113.75 491.27
  A 0.92 0.90 -5.8 0 0 114.65 491.99
  L 180.61 491.99
  Z"
/>
<path fill="#274ca9" fill-opacity="0.851" d="
  M 208.52 316.10
  L 243.60 375.40
  Q 243.96 376.00 243.26 376.00
  L 208.15 376.00
  Q 207.68 376.00 207.82 376.45
  Q 207.88 376.65 208.07 376.68
  Q 207.21 376.75 206.78 375.98
  Q 207.74 375.89 207.54 375.29
  Q 197.73 346.16 188.06 317.15
  A 0.91 0.91 0.0 0 1 188.93 315.95
  L 208.52 316.10
  Z"
/>
<path fill="#274ca9" fill-opacity="0.851" d="
  M 182.73 376.00
  L 195.69 435.42
  Q 195.75 435.67 195.52 435.80
  L 195.29 435.94
  L 172.19 435.97
  L 162.98 376.07
  L 182.73 376.00
  Z"
/>
<path fill="#234395" fill-opacity="0.749" d="
  M 182.73 376.00
  L 206.78 375.98
  Q 207.21 376.75 208.07 376.68
  L 227.72 435.36
  Q 227.93 435.99 227.26 435.99
  L 195.86 436.00
  Q 195.75 436.00 195.70 436.09
  Q 195.62 436.23 195.54 436.29
  Q 195.35 436.19 195.29 435.94
  L 195.52 435.80
  Q 195.75 435.67 195.69 435.42
  L 182.73 376.00
  Z"
/>
<path fill="#172d63" fill-opacity="0.502" d="
  M 195.29 435.94
  Q 195.35 436.19 195.54 436.29
  L 195.83 436.58
  Q 195.94 436.69 195.97 436.83
  L 207.82 491.26
  A 0.59 0.58 84.0 0 1 207.25 491.97
  L 180.61 491.99
  L 172.02 436.01
  Q 172.11 435.99 172.19 435.97
  L 195.29 435.94
  Z"
/>
</svg>
