<?xml version="1.0" encoding="UTF-8" standalone="no"?>
<!DOCTYPE svg PUBLIC "-//W3C//DTD SVG 1.1//EN" "http://www.w3.org/Graphics/SVG/1.1/DTD/svg11.dtd">
<svg xmlns="http://www.w3.org/2000/svg" version="1.1" viewBox="0.00 0.00 1280.00 440.00">
<g stroke-width="2.00" fill="none" stroke-linecap="butt">
<path stroke="#ffb920" vector-effect="non-scaling-stroke" d="
  M 277.35 173.00
  L 252.36 198.02"
/>
<path stroke="#fa9410" vector-effect="non-scaling-stroke" d="
  M 252.36 198.02
  Q 252.85 195.94 250.90 195.42
  Q 250.39 195.28 250.15 194.82
  L 227.99 152.48
  A 1.28 1.28 0.0 0 0 225.72 152.48
  Q 193.70 213.83 161.23 275.38
  C 159.92 277.87 159.09 281.36 157.33 284.06
  Q 154.23 288.85 154.20 288.91
  Q 151.03 294.71 147.84 301.09
  A 0.37 0.37 0.0 0 1 147.14 300.91
  Q 147.14 300.55 146.91 300.02"
/>
<path stroke="#faa71d" vector-effect="non-scaling-stroke" d="
  M 146.36 303.28
  Q 146.98 303.53 147.25 303.26
  Q 184.25 266.47 252.36 198.02"
/>
</g>
<path fill="#ffa613" d="
  M 277.35 173.00
  L 252.36 198.02
  Q 252.85 195.94 250.90 195.42
  Q 250.39 195.28 250.15 194.82
  L 227.99 152.48
  A 1.28 1.28 0.0 0 0 225.72 152.48
  Q 193.70 213.83 161.23 275.38
  C 159.92 277.87 159.09 281.36 157.33 284.06
  Q 154.23 288.85 154.20 288.91
  Q 151.03 294.71 147.84 301.09
  A 0.37 0.37 0.0 0 1 147.14 300.91
  Q 147.14 300.55 146.91 300.02
  Q 163.50 193.38 180.22 86.75
  C 181.06 81.42 189.06 80.77 191.58 85.47
  Q 209.06 118.07 226.41 150.44
  A 0.45 0.45 0.0 0 0 227.21 150.44
  Q 233.49 138.48 239.44 127.19
  C 240.92 124.36 241.94 121.84 245.23 121.13
  C 248.89 120.35 250.86 122.62 252.53 125.77
  Q 264.99 149.32 277.35 173.00
  Z"
/>
<path fill="#ffcb2c" d="
  M 146.36 303.28
  Q 146.98 303.53 147.25 303.26
  Q 184.25 266.47 252.36 198.02
  L 277.35 173.00
  Q 293.86 157.07 310.00 140.50
  C 313.54 136.87 319.84 138.94 320.63 143.87
  Q 333.53 223.97 346.48 304.07
  Q 346.56 304.57 346.12 304.82
  Q 300.25 330.40 254.31 355.83
  Q 248.85 358.85 242.79 357.61
  Q 239.62 356.96 232.62 353.04
  Q 189.58 328.93 146.56 304.80
  Q 146.11 304.54 146.21 304.04
  L 146.36 303.28
  Z"
/>
<circle fill="#000000" fill-opacity="0.541" cx="533.28" cy="163.00" r="13.05"/>
<path fill="#000000" fill-opacity="0.541" d="
  M 442.89 216.39
  L 500.97 216.38
  A 0.45 0.45 0.0 0 1 501.42 216.83
  L 501.44 233.11
  A 0.45 0.45 0.0 0 1 500.99 233.56
  L 442.88 233.59
  A 0.45 0.45 0.0 0 0 442.43 234.04
  L 442.44 294.84
  A 0.45 0.45 0.0 0 1 441.99 295.29
  L 424.40 295.26
  A 0.45 0.45 0.0 0 1 423.95 294.81
  L 423.95 151.97
  A 0.45 0.45 0.0 0 1 424.40 151.52
  L 507.42 151.52
  A 0.45 0.45 0.0 0 1 507.87 151.97
  L 507.88 168.78
  A 0.45 0.45 0.0 0 1 507.43 169.23
  L 442.88 169.23
  A 0.45 0.45 0.0 0 0 442.43 169.68
  L 442.44 215.94
  A 0.45 0.45 0.0 0 0 442.89 216.39
  Z"
/>
<path fill="#000000" fill-opacity="0.541" d="
  M 754.74 282.51
  L 754.74 294.64
  Q 754.74 295.27 754.11 295.27
  L 737.78 295.28
  A 0.75 0.75 0.0 0 1 737.03 294.53
  L 737.20 152.02
  Q 737.20 151.49 737.73 151.49
  L 754.79 151.53
  Q 755.38 151.53 755.39 152.11
  Q 755.92 181.06 754.95 210.00
  A 0.41 0.41 0.0 0 0 755.70 210.25
  C 761.79 201.48 770.31 196.43 780.94 194.49
  C 798.47 191.28 814.18 198.42 824.79 212.32
  C 842.46 235.46 838.73 271.52 815.34 289.34
  Q 806.92 295.76 797.37 297.61
  C 782.03 300.59 764.87 295.48 755.88 282.16
  Q 754.74 280.47 754.74 282.51
  Z
  M 762.63 221.46
  C 750.98 235.43 751.92 262.05 765.79 273.98
  C 777.94 284.43 795.37 284.12 806.90 273.00
  C 819.90 260.47 820.89 235.06 809.09 221.43
  C 796.63 207.03 774.89 206.76 762.63 221.46
  Z"
/>
<path fill="#f5820d" d="
  M 252.36 198.02
  Q 184.25 266.47 147.25 303.26
  Q 146.98 303.53 146.36 303.28
  L 146.91 300.02
  Q 147.14 300.55 147.14 300.91
  A 0.37 0.37 0.0 0 0 147.84 301.09
  Q 151.03 294.71 154.20 288.91
  Q 154.23 288.85 157.33 284.06
  C 159.09 281.36 159.92 277.87 161.23 275.38
  Q 193.70 213.83 225.72 152.48
  A 1.28 1.28 0.0 0 1 227.99 152.48
  L 250.15 194.82
  Q 250.39 195.28 250.90 195.42
  Q 252.85 195.94 252.36 198.02
  Z"
/>
<path fill="#000000" fill-opacity="0.541" d="
  M 644.46 250.08
  Q 645.72 270.95 662.89 278.80
  C 677.33 285.40 695.67 280.92 702.12 265.33
  Q 702.37 264.73 702.97 264.98
  L 718.56 271.44
  A 0.43 0.43 0.0 0 1 718.78 272.01
  C 711.73 287.27 698.95 295.98 682.48 298.05
  C 633.88 304.19 610.97 249.49 636.02 213.32
  Q 650.38 192.60 676.98 193.88
  C 707.53 195.36 724.24 220.26 721.89 249.12
  Q 721.86 249.51 721.47 249.51
  L 645.00 249.51
  Q 644.43 249.51 644.46 250.08
  Z
  M 677.75 210.68
  C 662.92 209.09 649.57 218.22 645.74 233.63
  A 0.53 0.52 7.2 0 0 646.25 234.28
  L 701.75 234.13
  A 0.71 0.71 0.0 0 0 702.45 233.30
  C 700.18 220.01 691.08 212.11 677.75 210.68
  Z"
/>
<path fill="#000000" fill-opacity="0.541" d="
  M 915.02 281.77
  Q 905.42 295.99 888.15 298.05
  C 864.95 300.83 843.88 286.69 846.21 261.26
  C 847.47 247.44 859.16 237.17 871.88 233.63
  Q 894.46 227.35 915.49 236.81
  A 0.36 0.36 0.0 0 0 916.00 236.49
  Q 916.04 218.75 901.37 212.79
  C 889.09 207.81 872.61 211.32 866.90 224.34
  A 0.58 0.57 -66.6 0 1 866.15 224.64
  L 850.37 217.84
  A 0.65 0.65 0.0 0 1 850.04 216.96
  Q 855.78 205.35 866.28 199.35
  C 877.53 192.92 892.65 192.11 905.17 195.93
  C 922.93 201.36 933.52 215.26 933.58 234.25
  Q 933.67 264.48 933.57 294.71
  Q 933.57 295.27 933.00 295.27
  L 916.47 295.27
  Q 915.93 295.26 915.93 294.72
  L 915.83 282.02
  A 0.44 0.44 0.0 0 0 915.02 281.77
  Z
  M 879.78 248.34
  C 868.53 251.69 859.47 265.99 869.86 275.92
  Q 874.16 280.02 879.64 281.00
  C 896.29 283.96 915.55 272.11 915.85 253.84
  A 2.11 2.10 -73.9 0 0 914.83 251.98
  C 904.88 245.87 890.83 245.04 879.78 248.34
  Z"
/>
<path fill="#000000" fill-opacity="0.541" d="
  M 993.68 255.10
  C 979.48 251.30 957.86 248.65 950.19 232.94
  Q 945.95 224.26 949.61 214.34
  Q 953.14 204.77 963.67 199.47
  Q 987.54 187.43 1010.28 199.53
  Q 1020.05 204.72 1024.74 216.20
  Q 1024.92 216.63 1024.49 216.81
  L 1009.51 222.96
  A 0.55 0.54 -22.6 0 1 1008.81 222.68
  C 1003.00 210.01 988.19 207.89 976.17 211.89
  C 970.98 213.62 966.84 217.67 967.13 223.36
  C 967.45 229.48 973.83 232.71 979.24 234.00
  Q 989.49 236.43 999.73 238.89
  C 1005.16 240.19 1010.65 242.16 1015.08 245.41
  C 1026.69 253.90 1030.24 269.25 1022.82 281.66
  C 1016.01 293.05 1001.84 298.40 988.97 298.45
  Q 957.95 298.57 945.38 270.83
  Q 945.12 270.26 945.70 270.02
  L 961.01 263.70
  Q 961.60 263.46 961.86 264.05
  Q 970.72 284.21 992.99 281.64
  Q 999.56 280.88 1004.25 276.40
  C 1009.25 271.61 1008.81 263.49 1003.66 259.27
  Q 1000.94 257.04 993.68 255.10
  Z"
/>
<path fill="#000000" fill-opacity="0.541" d="
  M 1055.67 250.37
  C 1056.58 270.56 1072.51 283.97 1092.96 281.17
  C 1102.98 279.79 1109.12 274.16 1113.48 265.39
  Q 1113.80 264.76 1114.46 265.03
  L 1129.80 271.41
  A 0.50 0.50 0.0 0 1 1130.06 272.09
  C 1120.02 292.90 1099.22 301.68 1076.78 297.48
  C 1038.96 290.41 1026.91 244.78 1045.93 215.40
  C 1056.88 198.50 1074.50 190.96 1094.76 194.48
  C 1121.79 199.16 1135.15 223.12 1133.25 249.04
  A 0.50 0.50 0.0 0 1 1132.75 249.51
  L 1056.49 249.51
  Q 1055.63 249.51 1055.67 250.37
  Z
  M 1113.67 233.42
  C 1112.59 221.92 1102.90 213.00 1092.52 211.17
  C 1075.38 208.14 1061.53 216.94 1056.99 233.64
  A 0.52 0.51 7.3 0 0 1057.49 234.28
  L 1113.01 234.13
  A 0.66 0.65 -2.4 0 0 1113.67 233.42
  Z"
/>
<path fill="#000000" fill-opacity="0.541" d="
  M 582.31 212.26
  A 0.53 0.53 0.0 0 0 583.33 212.46
  C 589.93 196.51 609.70 191.43 624.85 196.71
  Q 625.44 196.91 625.21 197.49
  L 618.58 213.75
  Q 618.37 214.28 617.82 214.12
  C 598.54 208.61 582.83 222.26 582.93 241.50
  Q 583.06 268.10 583.07 294.71
  A 0.58 0.57 -90.0 0 1 582.50 295.29
  L 565.29 295.26
  Q 564.59 295.25 564.59 294.55
  L 564.57 197.43
  Q 564.57 196.94 565.07 196.94
  L 581.73 196.95
  Q 582.26 196.95 582.26 197.48
  L 582.31 212.26
  Z"
/>
<rect fill="#000000" fill-opacity="0.541" x="524.02" y="196.94" width="18.54" height="98.34" rx="0.56"/>
</svg>
