<?xml version="1.0" encoding="UTF-8" standalone="no"?>
<!DOCTYPE svg PUBLIC "-//W3C//DTD SVG 1.1//EN" "http://www.w3.org/Graphics/SVG/1.1/DTD/svg11.dtd">
<svg xmlns="http://www.w3.org/2000/svg" version="1.1" viewBox="0.00 0.00 1524.00 1375.00">
<path fill="#000000" d="
  M 847.08 675.05
  L 846.57 674.89
  A 0.42 0.42 0.0 0 1 846.67 674.08
  Q 887.48 670.23 926.26 657.49
  Q 936.96 653.98 950.09 647.72
  C 996.56 625.57 1029.02 587.71 1043.88 538.00
  C 1053.26 506.64 1056.74 471.82 1055.56 439.26
  Q 1053.27 376.19 1012.83 328.61
  C 1012.07 327.71 1010.36 326.01 1009.26 324.64
  Q 1008.93 324.21 1009.11 323.70
  C 1023.10 284.18 1019.98 241.33 1004.35 202.80
  Q 1004.16 202.34 1003.66 202.24
  Q 996.04 200.74 990.74 201.16
  Q 967.63 203.00 944.28 212.87
  Q 909.57 227.55 878.62 249.09
  Q 878.18 249.40 877.66 249.26
  Q 763.24 218.57 648.81 249.20
  Q 648.29 249.34 647.83 249.05
  Q 637.05 242.07 626.10 235.41
  Q 602.05 220.76 575.77 210.72
  C 559.24 204.40 539.85 199.50 522.65 202.16
  Q 522.10 202.25 521.91 202.78
  Q 521.59 203.72 520.93 205.40
  C 506.30 242.88 503.33 285.39 517.21 323.57
  A 0.94 0.93 -34.5 0 1 517.03 324.51
  Q 470.94 376.16 470.34 446.25
  Q 470.04 481.20 476.81 515.49
  C 484.93 556.64 504.31 595.39 536.54 622.46
  C 575.83 655.48 628.69 668.98 678.84 674.13
  A 0.26 0.25 26.6 0 1 678.99 674.57
  C 661.99 690.31 653.32 712.10 650.25 735.14
  Q 650.18 735.66 649.71 735.88
  C 629.12 745.45 604.62 750.27 582.15 746.62
  C 556.17 742.40 533.40 725.30 519.98 703.78
  C 508.40 685.21 496.35 670.39 477.42 659.46
  Q 457.25 647.82 434.15 651.95
  C 430.63 652.58 426.10 654.09 425.03 657.81
  C 421.90 668.58 446.51 680.47 452.93 685.90
  Q 458.30 690.46 462.79 695.96
  Q 482.09 719.59 493.98 747.51
  Q 498.54 758.24 500.88 762.09
  C 530.68 811.21 598.99 809.26 647.27 800.07
  Q 647.79 799.97 647.79 800.50
  Q 647.95 840.75 648.36 880.89
  Q 648.44 888.98 647.46 892.42
  C 642.98 908.14 626.20 910.71 612.75 906.09
  C 469.54 856.90 359.72 739.86 319.28 594.51
  C 289.16 486.26 300.35 368.23 350.40 267.40
  C 400.16 167.15 485.24 88.55 588.71 45.99
  C 665.08 14.58 749.01 5.39 830.62 17.33
  C 948.94 34.64 1057.60 99.96 1129.21 195.57
  Q 1203.00 294.09 1218.03 416.25
  C 1230.34 516.27 1208.58 619.39 1156.95 706.24
  C 1101.78 799.08 1015.64 869.76 913.68 905.64
  Q 906.16 908.28 901.42 908.36
  C 890.96 908.52 881.96 904.44 878.24 894.18
  Q 876.90 890.51 876.85 882.75
  Q 876.77 870.92 876.95 853.50
  Q 877.77 772.97 877.20 751.76
  C 876.45 724.00 868.09 695.12 847.69 675.43
  Q 847.43 675.17 847.08 675.05
  Z"
/>
<path fill="#000000" d="
  M 220.82 1282.99
  L 220.81 1207.02
  A 0.61 0.61 0.0 0 0 220.20 1206.41
  Q 196.51 1206.44 172.69 1206.41
  Q 169.48 1206.40 167.85 1205.32
  Q 165.28 1203.61 165.27 1200.51
  Q 165.17 1170.12 165.35 1139.75
  C 165.39 1131.96 169.74 1132.41 176.22 1132.40
  Q 236.49 1132.36 296.73 1132.38
  C 301.21 1132.38 304.00 1133.91 304.00 1138.61
  Q 304.02 1236.25 304.00 1333.10
  A 4.53 4.50 -16.1 0 1 301.88 1336.92
  C 273.96 1354.49 239.64 1363.77 207.00 1365.84
  C 179.09 1367.61 149.76 1365.68 123.75 1358.99
  C 91.96 1350.81 64.19 1334.01 44.33 1307.66
  C 19.38 1274.55 10.58 1231.45 8.15 1189.24
  Q 6.28 1156.61 9.77 1121.75
  C 13.94 1080.07 25.73 1036.25 54.09 1004.53
  Q 75.98 980.05 106.00 969.06
  Q 133.61 958.95 163.02 957.82
  Q 182.10 957.08 198.50 957.60
  C 224.05 958.40 250.64 962.03 274.92 971.10
  Q 280.79 973.30 286.03 976.70
  C 288.96 978.60 288.78 980.89 288.00 984.20
  Q 281.24 1012.70 274.59 1041.22
  C 273.32 1046.66 271.00 1048.88 265.45 1046.93
  C 240.25 1038.07 213.23 1035.54 186.75 1036.47
  C 169.21 1037.09 152.15 1039.87 137.32 1048.45
  C 101.85 1068.98 94.31 1111.75 92.50 1150.00
  Q 91.31 1175.22 94.49 1200.26
  C 100.08 1244.20 119.74 1284.09 169.89 1286.96
  Q 190.78 1288.16 212.34 1285.39
  Q 216.70 1284.83 220.32 1283.67
  A 0.72 0.71 -9.0 0 0 220.82 1282.99
  Z"
/>
<path fill="#000000" d="
  M 867.76 1192.38
  L 757.71 1192.38
  Q 757.09 1192.38 757.09 1193.00
  Q 756.99 1271.94 757.08 1350.76
  C 757.08 1355.29 755.69 1358.68 750.75 1358.68
  Q 716.00 1358.67 681.26 1358.67
  C 675.11 1358.67 673.85 1355.97 673.85 1350.19
  Q 673.85 1163.52 673.86 977.75
  A 5.75 5.74 -90.0 0 1 679.60 972.00
  Q 714.13 972.05 749.69 972.00
  C 754.12 972.00 757.06 973.75 757.06 978.38
  Q 757.06 1047.08 757.05 1115.79
  Q 757.05 1116.26 757.53 1116.26
  L 867.52 1116.27
  A 0.80 0.79 -0.4 0 0 868.32 1115.47
  Q 868.14 1047.22 868.21 979.00
  C 868.22 974.17 870.69 972.03 875.51 972.03
  Q 909.98 972.03 944.44 972.03
  C 949.02 972.02 951.55 974.04 951.55 978.63
  Q 951.52 1165.44 951.55 1352.25
  C 951.55 1357.26 948.06 1358.67 943.47 1358.67
  Q 908.86 1358.68 874.25 1358.67
  C 869.15 1358.67 868.19 1355.06 868.19 1350.55
  Q 868.20 1271.68 868.21 1192.82
  Q 868.21 1192.38 867.76 1192.38
  Z"
/>
<path fill="#000000" d="
  M 1329.04 1339.00
  Q 1328.51 1343.65 1326.98 1352.75
  C 1326.21 1357.37 1323.64 1358.68 1319.04 1358.68
  Q 1296.17 1358.67 1273.31 1358.68
  C 1267.91 1358.68 1265.28 1356.90 1265.28 1351.41
  Q 1265.28 1165.33 1265.28 979.25
  C 1265.28 974.14 1267.40 972.05 1272.55 972.04
  Q 1306.99 972.03 1341.40 972.02
  C 1346.30 972.02 1348.72 973.72 1348.71 978.67
  Q 1348.61 1041.36 1348.72 1104.04
  Q 1348.72 1104.62 1349.23 1104.34
  Q 1378.48 1088.10 1412.23 1086.92
  C 1458.33 1085.31 1492.34 1105.81 1506.94 1150.04
  Q 1514.38 1172.58 1515.71 1198.77
  C 1516.89 1221.98 1516.08 1245.42 1513.14 1268.49
  C 1510.22 1291.45 1503.67 1315.76 1489.92 1334.41
  C 1473.80 1356.28 1449.32 1364.14 1422.92 1365.79
  C 1391.75 1367.73 1359.35 1360.18 1333.77 1342.00
  C 1332.81 1341.31 1331.15 1339.67 1329.73 1338.69
  Q 1329.13 1338.27 1329.04 1339.00
  Z
  M 1390.30 1155.33
  C 1375.48 1155.54 1361.36 1159.45 1347.67 1167.07
  Q 1347.13 1167.37 1347.13 1167.98
  L 1347.14 1285.49
  Q 1347.14 1286.01 1347.58 1286.26
  Q 1373.09 1300.82 1402.28 1297.23
  C 1424.79 1294.46 1430.36 1275.07 1432.18 1255.74
  C 1434.51 1231.07 1435.66 1206.38 1428.99 1183.77
  Q 1420.47 1154.90 1390.30 1155.33
  Z"
/>
<ellipse fill="#000000" cx="0.00" cy="0.00" transform="translate(386.79,1027.15) rotate(89.7)" rx="46.65" ry="46.06"/>
<path fill="#000000" d="
  M 496.87 1164.48
  Q 478.63 1164.28 460.41 1164.36
  C 456.28 1164.37 454.09 1161.59 454.09 1157.74
  Q 454.09 1135.73 454.16 1113.75
  C 454.17 1109.94 454.93 1107.47 458.75 1106.50
  Q 477.84 1101.66 496.80 1097.14
  A 0.87 0.87 0.0 0 0 497.47 1096.29
  L 497.48 1023.24
  A 3.58 3.58 0.0 0 1 501.05 1019.66
  Q 537.55 1019.58 574.50 1019.59
  C 579.99 1019.59 579.25 1022.89 579.26 1027.39
  Q 579.28 1060.69 579.25 1093.80
  A 0.80 0.79 0.0 0 0 580.05 1094.59
  Q 606.31 1094.63 632.75 1094.61
  C 637.59 1094.61 638.73 1098.04 638.74 1102.38
  Q 638.77 1130.77 638.77 1159.06
  A 5.33 5.32 -0.1 0 1 633.45 1164.38
  L 580.21 1164.38
  A 0.93 0.93 0.0 0 0 579.28 1165.31
  Q 579.24 1213.49 579.29 1261.82
  Q 579.30 1275.27 580.89 1280.03
  C 587.76 1300.53 614.03 1298.31 631.20 1296.73
  C 636.38 1296.25 639.68 1297.51 639.69 1303.12
  Q 639.71 1328.94 639.66 1354.74
  Q 639.66 1356.48 637.94 1357.73
  Q 637.00 1358.41 634.92 1359.03
  Q 604.61 1368.10 573.42 1364.62
  C 542.92 1361.22 517.16 1349.28 504.88 1319.36
  C 499.13 1305.35 497.52 1290.24 497.51 1273.74
  Q 497.48 1219.41 497.46 1165.08
  Q 497.46 1164.49 496.87 1164.48
  Z"
/>
<path fill="#000000" d="
  M 354.50 1358.66
  C 347.82 1358.62 344.33 1355.33 344.33 1348.25
  Q 344.36 1225.25 344.35 1102.25
  C 344.35 1095.61 348.85 1094.60 354.67 1094.60
  Q 388.10 1094.64 421.50 1094.59
  C 426.01 1094.58 427.70 1097.89 427.70 1102.14
  Q 427.69 1225.04 427.70 1347.95
  C 427.70 1353.99 426.66 1358.62 419.76 1358.64
  Q 370.34 1358.75 354.50 1358.66
  Z"
/>
<path fill="#000000" d="
  M 1168.70 1340.80
  Q 1144.04 1356.09 1118.26 1362.24
  Q 1084.56 1370.26 1049.78 1363.18
  Q 1038.43 1360.86 1030.63 1357.57
  C 997.36 1343.54 986.55 1310.75 986.52 1276.75
  Q 986.44 1189.50 986.48 1102.25
  C 986.48 1098.11 988.58 1095.26 992.81 1095.26
  Q 1027.91 1095.26 1063.00 1095.26
  C 1067.84 1095.26 1070.18 1097.36 1070.18 1102.29
  Q 1070.18 1183.39 1070.20 1264.50
  C 1070.20 1278.25 1073.66 1293.12 1089.24 1296.66
  C 1108.37 1301.01 1129.40 1295.45 1145.62 1285.27
  Q 1146.05 1285.00 1146.05 1284.49
  Q 1146.07 1193.43 1146.05 1102.37
  C 1146.05 1098.03 1147.86 1095.27 1152.33 1095.27
  Q 1186.28 1095.25 1220.23 1095.26
  C 1224.62 1095.26 1228.72 1096.25 1228.72 1101.25
  Q 1228.88 1225.30 1228.84 1349.35
  C 1228.84 1354.95 1228.11 1358.64 1221.75 1358.69
  Q 1199.93 1358.88 1178.12 1359.04
  C 1175.07 1359.06 1172.06 1357.69 1171.45 1354.53
  Q 1170.14 1347.84 1169.28 1341.07
  Q 1169.21 1340.49 1168.70 1340.80
  Z"
/>
</svg>
