<?xml version="1.0" encoding="UTF-8" standalone="no"?>
<!DOCTYPE svg PUBLIC "-//W3C//DTD SVG 1.1//EN" "http://www.w3.org/Graphics/SVG/1.1/DTD/svg11.dtd">
<svg xmlns="http://www.w3.org/2000/svg" version="1.1" viewBox="0.00 0.00 1102.00 414.00">
<path fill="#00684a" d="
  M 0.00 128.63
  L 0.00 119.24
  C 2.03 83.15 18.04 53.55 40.14 25.82
  Q 50.17 13.23 59.63 0.30
  A 0.49 0.48 45.4 0 1 60.41 0.31
  Q 70.84 14.78 82.15 28.55
  Q 102.20 52.98 112.69 82.47
  C 132.06 136.95 110.71 191.57 67.20 226.69
  Q 66.86 226.97 66.82 227.40
  L 64.09 256.48
  Q 64.04 257.00 63.52 257.00
  L 56.24 257.00
  Q 55.87 257.00 55.83 256.63
  L 53.10 227.62
  Q 53.05 227.06 52.61 226.71
  C 22.73 202.44 2.12 167.51 0.00 128.63
  Z
  M 59.52 93.98
  C 57.15 135.33 55.68 176.81 53.88 218.20
  Q 53.86 218.83 54.31 219.28
  L 59.30 224.23
  Q 59.90 224.82 60.51 224.23
  L 65.72 219.11
  A 1.10 1.09 -23.9 0 0 66.05 218.26
  L 60.45 93.99
  Q 60.04 84.84 59.52 93.98
  Z"
/>
<path fill="#00684a" d="
  M 204.22 110.35
  Q 203.86 160.94 204.19 211.52
  C 204.22 217.09 207.29 219.30 212.67 218.88
  Q 213.86 218.79 213.86 219.99
  L 213.86 225.07
  Q 213.85 226.25 212.68 226.25
  L 180.25 226.25
  A 0.25 0.25 0.0 0 1 180.00 226.00
  L 180.00 219.26
  Q 180.00 218.97 180.29 218.96
  C 186.41 218.70 191.86 219.56 191.93 211.27
  Q 192.42 157.01 192.93 102.75
  C 192.99 96.36 186.81 95.97 181.27 96.43
  A 0.24 0.23 86.8 0 1 181.01 96.19
  L 181.00 89.25
  A 0.25 0.25 0.0 0 1 181.25 89.00
  L 215.20 89.00
  Q 215.71 89.00 215.90 89.47
  L 260.24 197.76
  A 0.28 0.28 0.0 0 0 260.76 197.76
  L 305.02 89.37
  Q 305.17 89.00 305.56 89.00
  L 338.50 89.00
  Q 339.00 89.00 339.00 89.50
  L 339.00 95.99
  Q 339.00 96.53 338.45 96.47
  Q 331.26 95.56 328.51 98.62
  Q 326.97 100.35 326.98 105.76
  Q 327.12 157.85 327.27 209.92
  Q 327.28 213.94 327.97 215.47
  C 329.54 218.97 334.06 219.41 337.53 218.92
  Q 339.00 218.71 339.00 220.20
  L 339.00 225.00
  Q 339.00 226.25 337.75 226.25
  L 299.69 226.25
  Q 299.38 226.25 299.38 225.94
  L 299.38 219.15
  Q 299.38 218.83 299.69 218.87
  Q 309.38 220.15 309.31 211.51
  Q 308.87 161.99 308.60 112.49
  A 0.18 0.18 0.0 0 0 308.26 112.42
  Q 284.59 169.35 260.90 226.41
  C 259.69 229.33 254.99 230.01 253.21 227.13
  Q 253.05 226.86 251.81 223.86
  Q 228.31 167.02 204.59 110.28
  Q 204.23 109.40 204.22 110.35
  Z"
/>
<path fill="#00684a" d="
  M 826.32 218.68
  C 834.01 219.46 838.01 216.84 838.01 208.91
  Q 837.98 156.70 837.89 104.50
  C 837.87 97.49 832.32 95.55 826.25 96.35
  Q 826.01 96.38 826.01 96.14
  L 825.99 89.26
  A 0.26 0.25 -0.0 0 1 826.25 89.01
  Q 851.29 88.98 876.50 89.01
  Q 884.02 89.02 892.58 91.33
  C 929.08 101.15 945.49 135.04 939.96 170.74
  C 935.51 199.47 914.57 220.50 886.20 225.04
  Q 880.30 225.98 866.25 225.99
  Q 846.19 226.02 826.25 225.99
  A 0.25 0.25 0.0 0 1 826.00 225.74
  L 826.00 218.97
  Q 826.00 218.65 826.32 218.68
  Z
  M 855.97 107.12
  L 855.97 207.66
  A 8.02 8.02 0.0 0 0 863.99 215.68
  L 873.92 215.68
  A 52.48 47.71 90.0 0 0 921.63 163.20
  L 921.63 151.58
  A 52.48 47.71 90.0 0 0 873.92 99.10
  L 863.99 99.10
  A 8.02 8.02 0.0 0 0 855.97 107.12
  Z"
/>
<path fill="#00684a" d="
  M 1031.81 153.11
  C 1043.82 156.69 1053.82 160.82 1059.04 172.67
  Q 1062.92 181.49 1061.67 192.26
  C 1059.46 211.40 1042.65 222.17 1024.72 225.10
  Q 1019.43 225.96 1006.22 225.98
  Q 980.17 226.03 954.25 225.99
  A 0.25 0.25 0.0 0 1 954.00 225.74
  L 954.00 219.05
  Q 954.00 218.79 954.27 218.80
  Q 961.63 219.20 964.41 215.81
  Q 966.01 213.85 966.01 207.34
  Q 965.98 156.37 966.01 105.42
  C 966.01 98.59 961.76 95.11 954.71 96.45
  A 0.28 0.28 0.0 0 1 954.38 96.18
  L 954.37 89.30
  Q 954.37 89.02 954.65 89.02
  Q 999.49 88.89 1011.49 89.06
  C 1030.53 89.33 1050.23 100.26 1051.82 121.09
  C 1052.94 135.92 1044.38 146.25 1031.77 152.63
  Q 1031.18 152.92 1031.81 153.11
  Z
  M 1020.57 102.41
  C 1011.95 98.38 1002.55 99.36 993.32 99.34
  C 987.04 99.32 984.40 102.57 984.37 108.86
  Q 984.30 128.91 984.39 149.02
  Q 984.39 149.57 984.93 149.58
  Q 994.28 149.72 1003.62 149.62
  Q 1014.52 149.51 1019.14 147.66
  Q 1029.83 143.36 1032.14 130.19
  C 1033.98 119.66 1030.59 107.10 1020.57 102.41
  Z
  M 1027.06 212.33
  Q 1044.62 203.08 1042.14 182.41
  C 1040.38 167.62 1027.86 159.81 1013.73 159.80
  Q 999.31 159.78 984.75 159.88
  Q 984.26 159.89 984.26 160.37
  Q 984.22 183.94 984.24 207.50
  Q 984.25 212.50 988.08 214.47
  Q 990.14 215.53 995.11 215.51
  C 1005.07 215.49 1018.18 217.00 1027.06 212.33
  Z"
/>
<path fill="#00684a" d="
  M 360.91 200.07
  C 355.13 188.02 354.55 173.11 358.50 160.33
  C 364.38 141.28 380.39 128.62 400.06 126.35
  C 432.55 122.60 458.34 146.52 456.97 179.24
  C 456.01 202.18 442.23 220.43 420.29 226.28
  C 396.99 232.50 371.71 222.58 360.91 200.07
  Z
  M 383.39 146.60
  C 370.08 161.87 369.97 193.19 384.02 208.08
  C 393.70 218.33 409.44 220.01 421.68 213.69
  C 448.06 200.06 445.69 141.44 412.01 137.04
  Q 393.80 134.66 383.39 146.60
  Z"
/>
<path fill="#00684a" d="
  M 502.00 143.49
  A 0.40 0.40 0.0 0 0 502.71 143.62
  Q 515.62 126.01 536.10 125.96
  C 551.04 125.93 564.10 132.18 568.59 147.04
  Q 570.05 151.89 570.08 162.13
  Q 570.14 186.81 570.10 211.50
  C 570.09 218.14 573.63 218.82 579.08 218.40
  Q 580.00 218.32 580.00 219.24
  L 580.00 224.80
  Q 580.00 225.85 578.95 225.85
  L 543.80 225.85
  A 0.55 0.54 -90.0 0 1 543.26 225.30
  L 543.25 218.97
  Q 543.24 218.40 543.81 218.45
  C 548.43 218.84 553.34 218.12 553.36 213.00
  Q 553.50 170.62 553.36 158.50
  C 553.23 147.31 546.67 137.40 534.72 136.90
  C 515.09 136.08 503.24 151.65 503.06 170.01
  Q 502.84 191.35 502.86 212.70
  C 502.86 217.97 507.53 218.96 511.96 218.56
  Q 513.00 218.47 513.00 219.51
  L 513.00 225.00
  Q 513.00 226.00 512.00 226.00
  L 476.50 226.00
  A 0.25 0.25 0.0 0 1 476.25 225.75
  L 476.25 218.80
  Q 476.25 218.52 476.52 218.55
  Q 486.48 219.70 486.49 212.75
  Q 486.52 181.13 486.48 149.50
  C 486.47 142.94 481.88 142.53 476.53 142.94
  Q 476.01 142.98 476.01 142.46
  L 476.00 138.31
  Q 476.00 137.88 476.38 137.66
  Q 483.18 133.76 489.98 129.86
  C 492.66 128.32 494.78 128.69 497.70 128.77
  Q 498.18 128.78 498.30 129.24
  L 502.00 143.49
  Z"
/>
<path fill="#00684a" d="
  M 610.45 225.65
  C 604.46 226.27 598.95 223.77 599.41 217.49
  Q 599.60 215.00 602.20 211.50
  Q 608.61 202.86 614.94 194.18
  Q 615.25 193.75 614.83 193.44
  C 593.32 177.70 594.68 146.87 617.36 133.10
  Q 635.23 122.25 656.14 127.81
  Q 659.59 128.73 662.52 128.74
  Q 678.22 128.76 693.52 128.74
  Q 694.00 128.74 694.00 129.23
  L 693.99 138.19
  Q 693.99 138.63 693.56 138.58
  L 673.03 136.26
  Q 672.49 136.20 672.90 136.55
  C 692.73 153.74 688.91 183.50 666.21 196.12
  Q 646.88 206.86 625.99 199.61
  Q 625.57 199.46 625.31 199.82
  L 615.40 213.17
  A 0.29 0.29 0.0 0 0 615.63 213.63
  Q 637.32 213.59 659.00 213.66
  C 679.78 213.73 699.13 227.46 691.21 250.84
  C 687.93 260.52 678.92 268.39 669.50 272.23
  C 649.99 280.17 622.02 281.65 605.57 266.93
  C 592.44 255.18 597.61 235.45 610.66 226.21
  Q 611.62 225.52 610.45 225.65
  Z
  M 644.43 136.78
  Q 637.39 136.23 630.74 139.76
  C 619.60 145.68 616.70 156.29 617.66 168.24
  Q 618.31 176.34 622.73 182.18
  C 633.00 195.76 654.60 194.94 663.58 180.34
  Q 667.12 174.59 667.64 167.05
  C 668.71 151.48 660.31 138.01 644.43 136.78
  Z
  M 674.84 246.88
  C 677.12 234.81 669.43 225.91 657.25 225.67
  Q 649.61 225.53 630.58 225.58
  C 627.38 225.59 626.12 226.09 623.76 227.98
  Q 615.84 234.31 614.93 244.02
  C 612.62 268.96 644.18 270.86 660.34 264.36
  C 667.77 261.37 673.35 254.77 674.84 246.88
  Z"
/>
<path fill="#00684a" d="
  M 762.01 227.98
  C 727.06 229.98 703.09 199.13 710.15 165.31
  C 721.21 112.31 799.19 112.97 809.18 166.86
  Q 811.21 177.82 808.83 188.87
  C 803.89 211.73 785.66 226.63 762.01 227.98
  Z
  M 766.51 137.24
  C 739.49 132.85 726.23 153.61 726.56 177.49
  C 726.71 188.38 729.23 199.57 736.46 207.53
  C 749.42 221.79 773.31 220.21 784.26 205.45
  C 795.45 190.36 795.42 161.48 783.12 147.15
  Q 775.93 138.77 766.51 137.24
  Z"
/>
<path fill="#00684a" d="
  M 1102.00 211.64
  L 1102.00 215.28
  Q 1099.14 225.79 1089.29 225.93
  C 1077.38 226.09 1071.05 211.94 1080.31 204.06
  C 1087.90 197.60 1099.68 201.49 1102.00 211.64
  Z
  M 1099.93 213.50
  A 10.93 10.93 0.0 0 0 1089.00 202.57
  A 10.93 10.93 0.0 0 0 1078.07 213.50
  A 10.93 10.93 0.0 0 0 1089.00 224.43
  A 10.93 10.93 0.0 0 0 1099.93 213.50
  Z"
/>
<path fill="#00684a" d="
  M 1091.19 214.60
  Q 1092.64 215.92 1093.35 217.78
  A 1.11 1.09 -89.5 0 0 1093.94 218.39
  L 1095.03 218.84
  A 0.43 0.43 0.0 0 1 1094.88 219.66
  L 1092.23 219.75
  A 0.58 0.58 0.0 0 1 1091.70 219.47
  L 1088.63 214.39
  Q 1088.17 213.64 1087.90 214.47
  Q 1086.93 217.33 1088.97 218.96
  Q 1089.83 219.64 1088.73 219.63
  L 1083.83 219.56
  A 0.42 0.42 0.0 0 1 1083.79 218.72
  C 1084.66 218.64 1085.11 218.10 1085.13 217.21
  Q 1085.18 212.97 1085.11 208.73
  A 0.68 0.66 -77.4 0 0 1084.75 208.15
  L 1083.69 207.62
  A 0.36 0.36 0.0 0 1 1083.83 206.94
  Q 1087.41 206.71 1089.99 206.97
  C 1094.21 207.38 1095.19 212.13 1091.28 214.02
  Q 1090.80 214.25 1091.19 214.60
  Z
  M 1087.89 208.36
  L 1087.81 212.52
  A 0.47 0.47 0.0 0 0 1088.28 213.00
  L 1088.94 213.01
  A 2.27 2.15 1.0 0 0 1091.24 210.90
  L 1091.26 210.10
  A 2.27 2.15 1.0 0 0 1089.02 207.91
  L 1088.36 207.90
  A 0.47 0.47 0.0 0 0 1087.89 208.36
  Z"
/>
<rect fill="#00684a" x="347.90" y="289.87" width="10.46" height="112.48" rx="0.30"/>
<path fill="#00684a" d="
  M 255.78 369.25
  L 205.16 369.25
  A 0.34 0.34 0.0 0 0 204.85 369.45
  L 190.36 402.16
  A 0.34 0.34 0.0 0 1 190.05 402.36
  L 179.11 402.35
  A 0.34 0.34 0.0 0 1 178.80 401.87
  L 225.89 296.07
  A 0.34 0.34 0.0 0 1 226.20 295.87
  L 234.90 295.87
  A 0.34 0.34 0.0 0 1 235.21 296.07
  L 282.45 401.86
  A 0.34 0.34 0.0 0 1 282.14 402.34
  L 270.90 402.37
  A 0.34 0.34 0.0 0 1 270.59 402.17
  L 256.09 369.45
  A 0.34 0.34 0.0 0 0 255.78 369.25
  Z
  M 209.93 358.17
  A 0.32 0.32 0.0 0 0 210.22 358.62
  L 250.72 358.62
  A 0.32 0.32 0.0 0 0 251.01 358.17
  L 230.76 312.57
  A 0.32 0.32 0.0 0 0 230.18 312.57
  L 209.93 358.17
  Z"
/>
<path fill="#00684a" d="
  M 298.38 326.97
  L 298.37 307.06
  Q 298.37 306.50 298.94 306.50
  L 308.18 306.50
  Q 308.85 306.50 308.85 307.18
  L 308.85 326.74
  Q 308.85 327.38 309.49 327.38
  L 330.31 327.38
  Q 330.74 327.38 330.75 327.81
  L 330.75 336.75
  Q 330.75 337.25 330.25 337.25
  L 309.50 337.25
  Q 308.95 337.25 308.94 337.80
  Q 308.61 370.40 308.95 383.49
  C 309.25 394.91 323.06 394.51 330.47 391.77
  A 0.20 0.20 0.0 0 1 330.74 391.96
  L 330.76 400.96
  A 0.31 0.30 80.7 0 1 330.56 401.25
  C 319.47 405.16 304.70 403.32 300.05 391.47
  Q 298.42 387.30 298.39 375.81
  Q 298.34 356.76 298.39 337.69
  Q 298.39 337.25 297.95 337.25
  L 282.69 337.25
  Q 282.38 337.25 282.38 336.94
  L 282.37 327.73
  A 0.36 0.35 -90.0 0 1 282.72 327.37
  L 297.97 327.38
  Q 298.38 327.38 298.38 326.97
  Z"
/>
<path fill="#00684a" d="
  M 442.99 338.97
  L 443.00 327.93
  Q 443.01 327.36 443.57 327.36
  L 452.94 327.39
  Q 453.50 327.39 453.50 327.94
  L 453.50 401.79
  Q 453.50 402.35 452.95 402.35
  L 443.56 402.36
  Q 443.00 402.36 443.00 401.81
  L 443.00 390.78
  Q 443.00 390.05 442.54 390.62
  C 427.61 409.12 400.07 407.83 385.83 389.16
  C 368.74 366.76 380.15 331.55 409.10 326.46
  Q 428.48 323.05 442.68 339.09
  Q 442.99 339.45 442.99 338.97
  Z
  M 416.3714 394.3200
  A 29.45 27.76 89.9 0 0 444.0800 364.8215
  A 29.45 27.76 89.9 0 0 416.2686 335.4200
  A 29.45 27.76 89.9 0 0 388.5600 364.9185
  A 29.45 27.76 89.9 0 0 416.3714 394.3200
  Z"
/>
<path fill="#00684a" d="
  M 487.83 339.67
  C 484.86 343.48 485.01 349.23 488.30 352.72
  C 492.62 357.28 502.36 358.48 508.49 360.26
  Q 516.17 362.48 519.81 365.18
  C 531.69 373.98 531.62 395.19 516.75 401.08
  C 500.90 407.37 474.15 403.42 472.64 381.69
  Q 472.61 381.25 473.05 381.25
  L 482.50 381.25
  Q 483.01 381.25 483.14 381.74
  Q 485.39 390.37 493.58 393.12
  C 500.20 395.34 509.97 395.09 515.06 389.99
  C 519.55 385.50 518.44 378.33 513.82 374.19
  Q 511.08 371.73 508.27 370.97
  C 493.17 366.89 477.23 364.82 475.20 347.55
  Q 474.49 341.50 477.63 336.24
  C 485.21 323.55 506.69 323.18 517.42 331.30
  Q 524.65 336.77 525.95 346.22
  Q 526.02 346.75 525.49 346.75
  L 516.51 346.75
  Q 516.01 346.75 515.80 346.29
  Q 508.49 330.80 491.45 336.85
  Q 489.49 337.54 487.83 339.67
  Z"
/>
</svg>
