<?xml version="1.0" encoding="UTF-8" standalone="no"?>
<!DOCTYPE svg PUBLIC "-//W3C//DTD SVG 1.1//EN" "http://www.w3.org/Graphics/SVG/1.1/DTD/svg11.dtd">
<svg xmlns="http://www.w3.org/2000/svg" version="1.1" viewBox="0.00 0.00 1280.00 512.00">
<g stroke-width="2.00" fill="none" stroke-linecap="butt">
<path stroke="#57b9bc" vector-effect="non-scaling-stroke" d="
  M 232.46 30.68
  L 73.88 122.18
  A 1.88 1.87 75.0 0 0 72.95 123.80
  L 72.97 132.28
  A 2.20 2.20 0.0 0 0 74.06 134.16
  L 233.27 226.02
  A 1.20 1.19 -46.6 0 0 234.53 225.98
  Q 252.45 214.32 272.03 222.84
  C 273.88 223.65 275.76 225.04 277.58 226.09
  A 1.18 1.18 0.0 0 0 278.76 226.09
  L 440.51 132.74
  A 2.05 2.04 -14.5 0 0 441.54 131.00
  L 441.64 124.76
  A 0.91 0.91 0.0 0 0 441.19 123.96
  L 277.42 29.46
  A 1.00 1.00 0.0 0 0 276.39 29.48
  C 271.09 32.82 265.64 35.20 259.20 35.79
  C 250.18 36.63 242.19 35.30 234.81 30.71
  A 2.29 2.28 45.6 0 0 232.46 30.68"
/>
<path stroke="#57b9bc" vector-effect="non-scaling-stroke" d="
  M 454.46 158.57
  C 450.98 160.27 447.67 162.48 444.24 164.32
  Q 439.17 167.04 437.25 168.15
  Q 366.22 209.12 294.38 250.62
  A 2.03 2.02 73.1 0 0 293.37 252.52
  C 294.57 269.38 286.68 283.41 271.47 290.89
  A 1.83 1.82 77.0 0 0 270.45 292.53
  L 270.46 477.01
  A 2.36 2.36 0.0 0 0 271.69 479.08
  L 276.98 481.95
  A 1.49 1.47 -45.4 0 0 278.42 481.93
  Q 359.07 435.46 438.99 389.55
  Q 440.47 388.70 440.40 386.99
  Q 439.45 360.90 462.35 349.65
  Q 462.77 349.44 462.77 348.98
  L 462.77 164.01
  Q 462.77 163.53 462.36 163.27
  L 455.20 158.61
  Q 454.84 158.38 454.46 158.57"
/>
<path stroke="#57b9bc" vector-effect="non-scaling-stroke" d="
  M 220.22 267.39
  C 218.57 262.11 218.35 258.01 218.60 252.59
  A 2.30 2.28 16.6 0 0 217.47 250.52
  L 59.77 159.49
  A 1.53 1.53 0.0 0 0 58.23 159.49
  L 50.02 164.23
  A 2.15 2.11 -15.3 0 0 48.95 166.07
  Q 48.95 256.71 48.96 347.67
  C 48.96 349.09 49.36 349.80 50.57 350.41
  Q 67.08 358.71 70.97 376.56
  C 71.71 379.95 71.45 383.82 71.51 387.40
  A 1.90 1.89 -75.4 0 0 72.46 389.03
  L 233.47 481.92
  Q 234.25 482.37 235.04 481.94
  L 240.52 478.96
  A 1.98 1.98 0.0 0 0 241.56 477.22
  L 241.55 292.53
  A 1.83 1.82 -77.0 0 0 240.53 290.89
  Q 225.23 283.50 220.22 267.39"
/>
</g>
<path fill="#4a9ea1" d="
  M 255.08 0.00
  L 257.25 0.00
  L 477.52 127.80
  Q 478.00 128.08 478.00 128.64
  L 478.00 382.75
  A 2.57 2.56 75.0 0 1 476.72 384.97
  L 257.06 512.00
  L 254.95 512.00
  L 35.26 384.93
  A 2.53 2.52 15.1 0 1 34.00 382.75
  L 34.00 129.25
  A 2.52 2.51 -15.2 0 1 35.25 127.08
  L 255.08 0.00
  Z
  M 232.46 30.68
  L 73.88 122.18
  A 1.88 1.87 75.0 0 0 72.95 123.80
  L 72.97 132.28
  A 2.20 2.20 0.0 0 0 74.06 134.16
  L 233.27 226.02
  A 1.20 1.19 -46.6 0 0 234.53 225.98
  Q 252.45 214.32 272.03 222.84
  C 273.88 223.65 275.76 225.04 277.58 226.09
  A 1.18 1.18 0.0 0 0 278.76 226.09
  L 440.51 132.74
  A 2.05 2.04 -14.5 0 0 441.54 131.00
  L 441.64 124.76
  A 0.91 0.91 0.0 0 0 441.19 123.96
  L 277.42 29.46
  A 1.00 1.00 0.0 0 0 276.39 29.48
  C 271.09 32.82 265.64 35.20 259.20 35.79
  C 250.18 36.63 242.19 35.30 234.81 30.71
  A 2.29 2.28 45.6 0 0 232.46 30.68
  Z
  M 454.46 158.57
  C 450.98 160.27 447.67 162.48 444.24 164.32
  Q 439.17 167.04 437.25 168.15
  Q 366.22 209.12 294.38 250.62
  A 2.03 2.02 73.1 0 0 293.37 252.52
  C 294.57 269.38 286.68 283.41 271.47 290.89
  A 1.83 1.82 77.0 0 0 270.45 292.53
  L 270.46 477.01
  A 2.36 2.36 0.0 0 0 271.69 479.08
  L 276.98 481.95
  A 1.49 1.47 -45.4 0 0 278.42 481.93
  Q 359.07 435.46 438.99 389.55
  Q 440.47 388.70 440.40 386.99
  Q 439.45 360.90 462.35 349.65
  Q 462.77 349.44 462.77 348.98
  L 462.77 164.01
  Q 462.77 163.53 462.36 163.27
  L 455.20 158.61
  Q 454.84 158.38 454.46 158.57
  Z
  M 220.22 267.39
  C 218.57 262.11 218.35 258.01 218.60 252.59
  A 2.30 2.28 16.6 0 0 217.47 250.52
  L 59.77 159.49
  A 1.53 1.53 0.0 0 0 58.23 159.49
  L 50.02 164.23
  A 2.15 2.11 -15.3 0 0 48.95 166.07
  Q 48.95 256.71 48.96 347.67
  C 48.96 349.09 49.36 349.80 50.57 350.41
  Q 67.08 358.71 70.97 376.56
  C 71.71 379.95 71.45 383.82 71.51 387.40
  A 1.90 1.89 -75.4 0 0 72.46 389.03
  L 233.47 481.92
  Q 234.25 482.37 235.04 481.94
  L 240.52 478.96
  A 1.98 1.98 0.0 0 0 241.56 477.22
  L 241.55 292.53
  A 1.83 1.82 -77.0 0 0 240.53 290.89
  Q 225.23 283.50 220.22 267.39
  Z"
/>
<path fill="#63d3d7" d="
  M 73.88 122.18
  L 232.46 30.68
  A 2.29 2.28 45.6 0 1 234.81 30.71
  C 242.19 35.30 250.18 36.63 259.20 35.79
  C 265.64 35.20 271.09 32.82 276.39 29.48
  A 1.00 1.00 0.0 0 1 277.42 29.46
  L 441.19 123.96
  A 0.91 0.91 0.0 0 1 441.64 124.76
  L 441.54 131.00
  A 2.05 2.04 -14.5 0 1 440.51 132.74
  L 278.76 226.09
  A 1.18 1.18 0.0 0 1 277.58 226.09
  C 275.76 225.04 273.88 223.65 272.03 222.84
  Q 252.45 214.32 234.53 225.98
  A 1.20 1.19 -46.6 0 1 233.27 226.02
  L 74.06 134.16
  A 2.20 2.20 0.0 0 1 72.97 132.28
  L 72.95 123.80
  A 1.88 1.87 75.0 0 1 73.88 122.18
  Z"
/>
<path fill="#000000" d="
  M 1177.93 161.89
  C 1149.77 150.31 1114.87 145.26 1085.26 153.78
  C 1064.13 159.85 1052.89 177.74 1056.55 199.50
  C 1059.59 217.56 1078.16 225.42 1093.76 229.18
  Q 1118.13 235.05 1142.51 240.90
  C 1160.73 245.27 1181.67 254.01 1193.04 269.74
  C 1204.77 285.96 1206.20 308.02 1203.04 327.12
  Q 1196.75 365.03 1161.48 379.75
  C 1142.71 387.58 1122.76 388.31 1102.76 387.49
  Q 1069.96 386.14 1039.56 374.18
  Q 1032.58 371.43 1025.29 367.06
  A 0.68 0.67 -65.1 0 1 1025.00 366.26
  L 1033.57 342.56
  A 0.36 0.36 0.0 0 1 1034.07 342.36
  Q 1077.45 363.41 1125.75 361.41
  C 1147.11 360.53 1165.94 350.73 1171.60 328.98
  C 1176.02 311.97 1174.92 290.16 1159.31 279.38
  Q 1149.23 272.43 1133.94 268.68
  Q 1089.43 257.77 1076.71 254.36
  Q 1064.08 250.97 1052.78 243.92
  C 1028.55 228.80 1021.54 205.38 1026.68 178.00
  C 1032.52 146.84 1058.86 130.82 1088.26 126.00
  C 1123.05 120.31 1163.19 123.69 1194.39 141.39
  A 0.71 0.70 -65.4 0 1 1194.70 142.24
  L 1186.54 165.25
  A 0.56 0.55 -66.0 0 1 1185.75 165.56
  Q 1181.90 163.52 1177.93 161.89
  Z"
/>
<path fill="#000000" d="
  M 687.97 275.49
  L 687.98 383.18
  A 0.67 0.66 -90.0 0 1 687.32 383.85
  L 658.11 383.86
  A 0.40 0.39 -90.0 0 1 657.72 383.46
  L 657.72 129.22
  Q 657.72 128.48 658.46 128.48
  Q 698.17 128.45 738.00 128.48
  C 758.24 128.50 776.99 131.06 794.60 140.35
  C 811.92 149.48 822.58 165.94 824.94 185.26
  C 829.16 219.92 819.53 255.33 784.03 268.77
  C 753.57 280.30 720.29 277.15 688.44 275.05
  Q 687.97 275.02 687.97 275.49
  Z
  M 794.73 192.52
  C 792.71 165.66 768.08 155.90 744.74 155.72
  Q 716.65 155.50 688.31 155.64
  Q 687.97 155.65 687.97 155.98
  L 687.97 250.37
  A 0.28 0.28 0.0 0 0 688.24 250.65
  Q 712.24 251.05 736.00 250.97
  C 749.39 250.92 764.93 248.48 776.71 241.68
  C 793.75 231.85 796.04 209.93 794.73 192.52
  Z"
/>
<rect fill="#000000" x="571.80" y="131.37" width="29.66" height="252.48" rx="0.68"/>
<path fill="#000000" d="
  M 890.07 271.60
  L 890.09 383.47
  A 0.38 0.38 0.0 0 1 889.71 383.85
  L 860.87 383.86
  A 0.38 0.38 0.0 0 1 860.49 383.48
  L 860.49 131.75
  A 0.38 0.38 0.0 0 1 860.87 131.37
  L 1000.40 131.38
  A 0.38 0.38 0.0 0 1 1000.78 131.78
  L 999.65 157.14
  A 0.38 0.38 0.0 0 1 999.27 157.50
  L 890.47 157.50
  A 0.38 0.38 0.0 0 0 890.09 157.88
  L 890.06 245.70
  A 0.38 0.38 0.0 0 0 890.44 246.08
  L 994.10 246.07
  A 0.38 0.38 0.0 0 1 994.48 246.45
  L 994.49 270.85
  A 0.38 0.38 0.0 0 1 994.11 271.23
  L 890.45 271.22
  A 0.38 0.38 0.0 0 0 890.07 271.60
  Z"
/>
<path fill="#63d3d7" d="
  M 444.24 164.32
  C 447.67 162.48 450.98 160.27 454.46 158.57
  Q 454.84 158.38 455.20 158.61
  L 462.36 163.27
  Q 462.77 163.53 462.77 164.01
  L 462.77 348.98
  Q 462.77 349.44 462.35 349.65
  Q 439.45 360.90 440.40 386.99
  Q 440.47 388.70 438.99 389.55
  Q 359.07 435.46 278.42 481.93
  A 1.49 1.47 -45.4 0 1 276.98 481.95
  L 271.69 479.08
  A 2.36 2.36 0.0 0 1 270.46 477.01
  L 270.45 292.53
  A 1.83 1.82 77.0 0 1 271.47 290.89
  C 286.68 283.41 294.57 269.38 293.37 252.52
  A 2.03 2.02 73.1 0 1 294.38 250.62
  Q 366.22 209.12 437.25 168.15
  Q 439.17 167.04 444.24 164.32
  Z"
/>
<path fill="#63d3d7" d="
  M 220.22 267.39
  Q 225.23 283.50 240.53 290.89
  A 1.83 1.82 -77.0 0 1 241.55 292.53
  L 241.56 477.22
  A 1.98 1.98 0.0 0 1 240.52 478.96
  L 235.04 481.94
  Q 234.25 482.37 233.47 481.92
  L 72.46 389.03
  A 1.90 1.89 -75.4 0 1 71.51 387.40
  C 71.45 383.82 71.71 379.95 70.97 376.56
  Q 67.08 358.71 50.57 350.41
  C 49.36 349.80 48.96 349.09 48.96 347.67
  Q 48.95 256.71 48.95 166.07
  A 2.15 2.11 -15.3 0 1 50.02 164.23
  L 58.23 159.49
  A 1.53 1.53 0.0 0 1 59.77 159.49
  L 217.47 250.52
  A 2.30 2.28 16.6 0 1 218.60 252.59
  C 218.35 258.01 218.57 262.11 220.22 267.39
  Z"
/>
</svg>
