<?xml version="1.0" encoding="UTF-8" standalone="no"?>
<!DOCTYPE svg PUBLIC "-//W3C//DTD SVG 1.1//EN" "http://www.w3.org/Graphics/SVG/1.1/DTD/svg11.dtd">
<svg xmlns="http://www.w3.org/2000/svg" version="1.1" viewBox="0.00 0.00 659.00 200.00">
<g stroke-width="2.00" fill="none" stroke-linecap="butt">
<path stroke="#ffb69b" vector-effect="non-scaling-stroke" d="
  M 143.18 55.56
  A 0.79 0.79 0.0 0 1 143.18 54.44
  L 156.21 41.42
  Q 156.64 40.98 156.16 40.60
  C 142.41 29.74 124.56 48.42 135.54 61.97
  Q 142.28 70.30 153.17 66.32
  Q 153.74 66.11 153.31 65.68
  L 143.18 55.56"
/>
<path stroke="#ffb69b" vector-effect="non-scaling-stroke" d="
  M 156.19 64.52
  C 163.36 59.23 164.05 49.57 158.69 42.87
  Q 158.38 42.49 158.04 42.83
  L 146.31 54.56
  Q 145.87 55.00 146.31 55.44
  L 155.32 64.45
  Q 155.72 64.86 156.19 64.52"
/>
<path stroke="#ffb69b" vector-effect="non-scaling-stroke" d="
  M 121.18 62.42
  C 107.38 70.31 95.17 82.79 84.06 94.11
  Q 83.66 94.52 84.07 94.93
  L 90.83 101.70
  Q 91.25 102.13 91.68 101.70
  Q 110.04 83.32 128.43 64.95
  C 129.54 63.84 130.68 63.64 132.11 63.12
  Q 132.94 62.82 132.19 62.36
  Q 126.96 59.11 121.18 62.42"
/>
<path stroke="#ffb69b" vector-effect="non-scaling-stroke" d="
  M 135.97 74.78
  C 142.53 69.01 134.72 61.93 129.81 66.83
  Q 111.46 85.16 93.19 103.44
  Q 93.02 103.61 93.19 103.78
  L 97.50 108.15
  A 0.31 0.30 47.2 0 0 97.91 108.17
  Q 116.96 91.46 135.97 74.78"
/>
<path stroke="#ffb69b" vector-effect="non-scaling-stroke" d="
  M 130.82 90.60
  C 133.72 87.01 137.81 81.19 138.75 76.06
  Q 138.91 75.23 138.27 75.79
  L 99.69 109.63
  Q 99.20 110.07 99.66 110.53
  L 105.54 116.42
  Q 105.92 116.80 106.32 116.44
  Q 119.59 104.46 130.82 90.60"
/>
<path stroke="#ffb69b" vector-effect="non-scaling-stroke" d="
  M 88.33 103.24
  A 0.36 0.36 0.0 0 0 88.50 102.63
  L 82.25 96.38
  A 0.36 0.36 0.0 0 0 81.75 96.38
  L 72.01 106.12
  A 0.36 0.36 0.0 0 0 72.34 106.73
  L 88.33 103.24"
/>
<path stroke="#ffb69b" vector-effect="non-scaling-stroke" d="
  M 94.42 109.60
  A 0.48 0.48 0.0 0 0 94.65 108.79
  L 91.58 105.72
  A 0.48 0.48 0.0 0 0 90.90 105.72
  L 86.10 110.54
  A 0.48 0.48 0.0 0 0 86.54 111.34
  L 94.42 109.60"
/>
<path stroke="#ffb69b" vector-effect="non-scaling-stroke" d="
  M 65.78 143.53
  Q 86.30 133.27 104.03 118.89
  A 0.46 0.46 0.0 0 0 104.06 118.20
  L 97.59 111.72
  Q 97.26 111.39 96.81 111.49
  L 82.69 114.47
  A 1.20 1.20 0.0 0 0 82.07 114.80
  L 51.38 145.49
  Q 51.00 145.87 51.38 146.24
  L 61.35 156.21
  A 0.82 0.81 -74.0 0 0 62.72 155.45
  L 60.98 147.79
  A 1.98 1.98 0.0 0 1 61.89 145.65
  Q 63.59 144.63 65.78 143.53"
/>
<path stroke="#ffb69b" vector-effect="non-scaling-stroke" d="
  M 41.13 155.51
  A 0.32 0.32 0.0 0 0 41.33 156.06
  L 58.23 157.15
  A 0.32 0.32 0.0 0 0 58.48 156.61
  L 49.47 147.60
  A 0.32 0.32 0.0 0 0 49.01 147.60
  L 41.13 155.51"
/>
<path stroke="#ffb69b" vector-effect="non-scaling-stroke" d="
  M 156.46 51.14
  C 157.44 54.08 156.14 54.18 155.99 56.58
  A 1.04 1.04 0.0 0 0 157.79 57.36
  Q 160.61 54.36 158.89 50.48
  A 1.26 1.25 -25.2 0 0 157.18 49.87
  L 156.94 50.00
  A 0.94 0.94 0.0 0 0 156.46 51.14"
/>
</g>
<path fill="#ff6c37" d="
  M 92.64 0.00
  L 107.49 0.00
  Q 142.16 3.19 167.04 25.57
  C 209.35 63.62 211.36 129.98 171.22 170.34
  Q 145.35 196.35 107.37 200.00
  L 92.53 200.00
  C 42.33 194.97 4.34 157.67 0.00 107.33
  L 0.00 92.54
  C 4.32 42.17 42.53 4.90 92.64 0.00
  Z
  M 143.18 55.56
  A 0.79 0.79 0.0 0 1 143.18 54.44
  L 156.21 41.42
  Q 156.64 40.98 156.16 40.60
  C 142.41 29.74 124.56 48.42 135.54 61.97
  Q 142.28 70.30 153.17 66.32
  Q 153.74 66.11 153.31 65.68
  L 143.18 55.56
  Z
  M 156.19 64.52
  C 163.36 59.23 164.05 49.57 158.69 42.87
  Q 158.38 42.49 158.04 42.83
  L 146.31 54.56
  Q 145.87 55.00 146.31 55.44
  L 155.32 64.45
  Q 155.72 64.86 156.19 64.52
  Z
  M 121.18 62.42
  C 107.38 70.31 95.17 82.79 84.06 94.11
  Q 83.66 94.52 84.07 94.93
  L 90.83 101.70
  Q 91.25 102.13 91.68 101.70
  Q 110.04 83.32 128.43 64.95
  C 129.54 63.84 130.68 63.64 132.11 63.12
  Q 132.94 62.82 132.19 62.36
  Q 126.96 59.11 121.18 62.42
  Z
  M 135.97 74.78
  C 142.53 69.01 134.72 61.93 129.81 66.83
  Q 111.46 85.16 93.19 103.44
  Q 93.02 103.61 93.19 103.78
  L 97.50 108.15
  A 0.31 0.30 47.2 0 0 97.91 108.17
  Q 116.96 91.46 135.97 74.78
  Z
  M 130.82 90.60
  C 133.72 87.01 137.81 81.19 138.75 76.06
  Q 138.91 75.23 138.27 75.79
  L 99.69 109.63
  Q 99.20 110.07 99.66 110.53
  L 105.54 116.42
  Q 105.92 116.80 106.32 116.44
  Q 119.59 104.46 130.82 90.60
  Z
  M 88.33 103.24
  A 0.36 0.36 0.0 0 0 88.50 102.63
  L 82.25 96.38
  A 0.36 0.36 0.0 0 0 81.75 96.38
  L 72.01 106.12
  A 0.36 0.36 0.0 0 0 72.34 106.73
  L 88.33 103.24
  Z
  M 94.42 109.60
  A 0.48 0.48 0.0 0 0 94.65 108.79
  L 91.58 105.72
  A 0.48 0.48 0.0 0 0 90.90 105.72
  L 86.10 110.54
  A 0.48 0.48 0.0 0 0 86.54 111.34
  L 94.42 109.60
  Z
  M 65.78 143.53
  Q 86.30 133.27 104.03 118.89
  A 0.46 0.46 0.0 0 0 104.06 118.20
  L 97.59 111.72
  Q 97.26 111.39 96.81 111.49
  L 82.69 114.47
  A 1.20 1.20 0.0 0 0 82.07 114.80
  L 51.38 145.49
  Q 51.00 145.87 51.38 146.24
  L 61.35 156.21
  A 0.82 0.81 -74.0 0 0 62.72 155.45
  L 60.98 147.79
  A 1.98 1.98 0.0 0 1 61.89 145.65
  Q 63.59 144.63 65.78 143.53
  Z
  M 41.13 155.51
  A 0.32 0.32 0.0 0 0 41.33 156.06
  L 58.23 157.15
  A 0.32 0.32 0.0 0 0 58.48 156.61
  L 49.47 147.60
  A 0.32 0.32 0.0 0 0 49.01 147.60
  L 41.13 155.51
  Z"
/>
<path fill="#ffffff" d="
  M 143.18 55.56
  L 153.31 65.68
  Q 153.74 66.11 153.17 66.32
  Q 142.28 70.30 135.54 61.97
  C 124.56 48.42 142.41 29.74 156.16 40.60
  Q 156.64 40.98 156.21 41.42
  L 143.18 54.44
  A 0.79 0.79 0.0 0 0 143.18 55.56
  Z"
/>
<path fill="#ffffff" d="
  M 158.69 42.87
  C 164.05 49.57 163.36 59.23 156.19 64.52
  Q 155.72 64.86 155.32 64.45
  L 146.31 55.44
  Q 145.87 55.00 146.31 54.56
  L 158.04 42.83
  Q 158.38 42.49 158.69 42.87
  Z
  M 156.46 51.14
  C 157.44 54.08 156.14 54.18 155.99 56.58
  A 1.04 1.04 0.0 0 0 157.79 57.36
  Q 160.61 54.36 158.89 50.48
  A 1.26 1.25 -25.2 0 0 157.18 49.87
  L 156.94 50.00
  A 0.94 0.94 0.0 0 0 156.46 51.14
  Z"
/>
<path fill="#ff6c37" d="
  M 155.99 56.58
  C 156.14 54.18 157.44 54.08 156.46 51.14
  A 0.94 0.94 0.0 0 1 156.94 50.00
  L 157.18 49.87
  A 1.26 1.25 -25.2 0 1 158.89 50.48
  Q 160.61 54.36 157.79 57.36
  A 1.04 1.04 0.0 0 1 155.99 56.58
  Z"
/>
<path fill="#ffffff" d="
  M 121.18 62.42
  Q 126.96 59.11 132.19 62.36
  Q 132.94 62.82 132.11 63.12
  C 130.68 63.64 129.54 63.84 128.43 64.95
  Q 110.04 83.32 91.68 101.70
  Q 91.25 102.13 90.83 101.70
  L 84.07 94.93
  Q 83.66 94.52 84.06 94.11
  C 95.17 82.79 107.38 70.31 121.18 62.42
  Z"
/>
<path fill="#ffffff" d="
  M 129.81 66.83
  C 134.72 61.93 142.53 69.01 135.97 74.78
  Q 116.96 91.46 97.91 108.17
  A 0.31 0.30 47.2 0 1 97.50 108.15
  L 93.19 103.78
  Q 93.02 103.61 93.19 103.44
  Q 111.46 85.16 129.81 66.83
  Z"
/>
<path fill="#ff6c37" d="
  M 240.00 107.01
  L 240.00 128.07
  Q 240.00 131.14 236.93 131.22
  L 235.54 131.26
  Q 232.50 131.34 232.50 128.29
  L 232.50 70.24
  A 2.18 2.18 0.0 0 1 234.64 68.06
  C 252.61 67.69 271.99 65.08 269.97 90.30
  C 268.59 107.53 254.05 106.73 240.54 106.47
  Q 240.00 106.46 240.00 107.01
  Z
  M 239.95 75.15
  L 239.82 99.95
  A 0.28 0.28 0.0 0 0 240.09 100.23
  L 251.85 100.29
  A 11.02 10.86 -89.7 0 0 262.77 89.33
  L 262.79 86.01
  A 11.02 10.86 -89.7 0 0 251.99 74.93
  L 240.23 74.87
  A 0.28 0.28 0.0 0 0 239.95 75.15
  Z"
/>
<path fill="#ff6c37" d="
  M 385.69 76.08
  C 379.19 73.29 364.25 74.66 367.21 85.65
  C 368.98 92.27 377.16 93.78 382.49 96.03
  C 391.45 99.82 395.89 105.84 395.13 116.24
  C 393.12 143.60 350.21 130.04 359.01 119.10
  C 360.15 117.68 362.06 118.08 363.22 119.43
  Q 368.49 125.55 376.98 125.25
  C 382.74 125.04 387.15 121.79 387.67 115.79
  C 389.30 96.94 358.59 105.84 359.38 83.62
  Q 359.88 69.67 375.63 68.14
  C 379.10 67.80 394.00 68.11 393.54 74.31
  Q 393.37 76.63 391.18 77.87
  Q 390.72 78.13 390.22 77.94
  Q 388.57 77.33 385.69 76.08
  Z"
/>
<path fill="#ff6c37" d="
  M 432.50 75.00
  L 419.95 75.00
  Q 416.39 75.00 416.50 71.45
  L 416.52 70.70
  A 2.78 2.78 0.0 0 1 419.30 68.00
  L 453.49 68.00
  Q 456.83 68.00 456.89 71.33
  L 456.91 72.28
  A 2.67 2.66 89.5 0 1 454.25 75.00
  L 441.00 75.00
  Q 440.50 75.00 440.50 75.50
  L 440.50 128.28
  Q 440.50 131.31 437.47 131.26
  L 436.09 131.23
  Q 433.00 131.18 433.00 128.09
  L 433.00 75.50
  Q 433.00 75.00 432.50 75.00
  Z"
/>
<path fill="#ff6c37" d="
  M 488.75 84.44
  L 488.75 127.53
  Q 488.75 131.31 484.97 131.25
  L 484.15 131.24
  A 2.98 2.98 0.0 0 1 481.21 128.26
  Q 481.28 100.21 481.25 71.00
  C 481.25 69.31 482.91 68.19 484.56 68.20
  Q 488.78 68.21 490.84 72.46
  Q 494.29 79.56 504.17 97.83
  Q 504.44 98.33 504.71 97.83
  Q 511.63 84.81 518.42 71.97
  C 520.35 68.32 527.49 65.57 527.49 71.80
  Q 527.49 100.66 527.51 128.54
  Q 527.52 130.94 525.12 131.11
  L 523.24 131.24
  Q 520.00 131.47 520.00 128.23
  L 519.99 84.86
  A 0.25 0.25 0.0 0 0 519.52 84.74
  L 506.98 108.40
  A 2.97 2.96 45.2 0 1 501.73 108.38
  L 489.18 84.33
  Q 488.75 83.49 488.75 84.44
  Z"
/>
<path fill="#ff6c37" d="
  M 659.00 69.33
  L 659.00 130.08
  C 655.12 132.85 652.46 130.83 650.53 127.12
  Q 640.02 106.99 629.12 86.10
  Q 628.50 84.91 628.50 86.25
  L 628.50 128.96
  A 2.25 2.25 0.0 0 1 626.29 131.21
  L 624.15 131.25
  Q 621.25 131.30 621.25 128.40
  L 621.25 69.70
  Q 621.25 69.14 621.75 68.88
  C 626.56 66.39 628.85 69.39 630.95 73.51
  Q 641.17 93.57 651.44 113.57
  A 0.16 0.16 0.0 0 0 651.75 113.50
  L 651.75 70.27
  A 1.08 1.06 -21.5 0 1 652.10 69.48
  Q 655.16 66.67 659.00 69.33
  Z"
/>
<path fill="#ff6c37" d="
  M 332.44 115.08
  A 16.57 16.57 0.0 0 1 315.87 131.65
  L 311.61 131.65
  A 16.57 16.57 0.0 0 1 295.04 115.08
  L 295.04 84.90
  A 16.57 16.57 0.0 0 1 311.61 68.33
  L 315.87 68.33
  A 16.57 16.57 0.0 0 1 332.44 84.90
  L 332.44 115.08
  Z
  M 324.98 84.96
  A 10.17 10.17 0.0 0 0 314.81 74.79
  L 312.91 74.79
  A 10.17 10.17 0.0 0 0 302.74 84.96
  L 302.74 114.82
  A 10.17 10.17 0.0 0 0 312.91 124.99
  L 314.81 124.99
  A 10.17 10.17 0.0 0 0 324.98 114.82
  L 324.98 84.96
  Z"
/>
<path fill="#ff6c37" d="
  M 562.80 117.41
  L 559.28 129.18
  Q 558.37 132.23 555.32 131.33
  L 554.37 131.05
  Q 551.33 130.15 552.27 127.13
  L 570.06 69.86
  A 1.25 1.23 -7.2 0 1 570.59 69.19
  Q 574.06 67.13 576.89 68.78
  Q 578.54 69.75 579.40 72.56
  Q 587.76 99.69 596.18 126.51
  Q 597.31 130.11 593.67 131.11
  L 592.73 131.36
  A 3.08 3.08 0.0 0 1 588.96 129.27
  L 585.42 117.50
  Q 585.27 117.00 584.75 117.00
  L 563.35 117.00
  Q 562.92 117.00 562.80 117.41
  Z
  M 564.84 110.59
  A 0.30 0.30 0.0 0 0 565.13 110.98
  L 583.35 111.01
  A 0.30 0.30 0.0 0 0 583.64 110.63
  L 574.58 80.23
  A 0.30 0.30 0.0 0 0 574.01 80.22
  L 564.84 110.59
  Z"
/>
<path fill="#ffffff" d="
  M 138.75 76.06
  C 137.81 81.19 133.72 87.01 130.82 90.60
  Q 119.59 104.46 106.32 116.44
  Q 105.92 116.80 105.54 116.42
  L 99.66 110.53
  Q 99.20 110.07 99.69 109.63
  L 138.27 75.79
  Q 138.91 75.23 138.75 76.06
  Z"
/>
<path fill="#ffffff" d="
  M 88.33 103.24
  L 72.34 106.73
  A 0.36 0.36 0.0 0 1 72.01 106.12
  L 81.75 96.38
  A 0.36 0.36 0.0 0 1 82.25 96.38
  L 88.50 102.63
  A 0.36 0.36 0.0 0 1 88.33 103.24
  Z"
/>
<path fill="#ffffff" d="
  M 94.42 109.60
  L 86.54 111.34
  A 0.48 0.48 0.0 0 1 86.10 110.54
  L 90.90 105.72
  A 0.48 0.48 0.0 0 1 91.58 105.72
  L 94.65 108.79
  A 0.48 0.48 0.0 0 1 94.42 109.60
  Z"
/>
<path fill="#ffffff" d="
  M 65.78 143.53
  Q 63.59 144.63 61.89 145.65
  A 1.98 1.98 0.0 0 0 60.98 147.79
  L 62.72 155.45
  A 0.82 0.81 -74.0 0 1 61.35 156.21
  L 51.38 146.24
  Q 51.00 145.87 51.38 145.49
  L 82.07 114.80
  A 1.20 1.20 0.0 0 1 82.69 114.47
  L 96.81 111.49
  Q 97.26 111.39 97.59 111.72
  L 104.06 118.20
  A 0.46 0.46 0.0 0 1 104.03 118.89
  Q 86.30 133.27 65.78 143.53
  Z"
/>
<path fill="#ffffff" d="
  M 41.13 155.51
  L 49.01 147.60
  A 0.32 0.32 0.0 0 1 49.47 147.60
  L 58.48 156.61
  A 0.32 0.32 0.0 0 1 58.23 157.15
  L 41.33 156.06
  A 0.32 0.32 0.0 0 1 41.13 155.51
  Z"
/>
</svg>
